Coordinates
version=1
nRows=17
nColumns=40
inDegrees=yes

Units are S.I. units (second, meters, Newtons, ...)
Angles are in degrees.

endheader
time	pelvis_tilt	pelvis_list	pelvis_rotation	pelvis_tx	pelvis_ty	pelvis_tz	hip_flexion_r	hip_adduction_r	hip_rotation_r	knee_angle_r	knee_angle_r_beta	ankle_angle_r	subtalar_angle_r	mtp_angle_r	hip_flexion_l	hip_adduction_l	hip_rotation_l	knee_angle_l	knee_angle_l_beta	ankle_angle_l	subtalar_angle_l	mtp_angle_l	lumbar_extension	lumbar_bending	lumbar_rotation	arm_flex_r	arm_add_r	arm_rot_r	elbow_flex_r	pro_sup_r	wrist_flex_r	wrist_dev_r	arm_flex_l	arm_add_l	arm_rot_l	elbow_flex_l	pro_sup_l	wrist_flex_l	wrist_dev_l
      0.32000000	     -5.01662658	      0.33048740	      4.60188978	     -0.64774576	      0.83540415	      0.22867164	     39.85693852	     -2.64770370	     -3.47228596	    -92.45867738	     -1.61370834	     -3.63149503	    -18.27785195	     17.93407306	     13.80686642	     -5.33360745	      2.86205998	    -43.57720630	     -0.76056573	     22.50870479	     -4.78667745	    -14.94623525	     -9.05970105	     -2.04677723	     -7.56703322	    -21.19109717	    -16.28382185	      1.08644078	     83.40307037	     89.95437384	      0.00000000	      0.00000000	      9.40550203	     24.72537057	    -27.52981991	     78.25446408	     89.95437384	      0.00000000	      0.00000000
      0.33000000	     -5.72508498	     -0.92003277	      5.34443418	     -0.61734940	      0.83610195	      0.22807297	     43.57102741	     -2.17050207	     -4.68677267	    -90.57559656	     -1.58084238	     -2.83777169	    -18.23940938	     17.51365281	     11.52326661	     -3.85616237	      1.77125216	    -41.91649874	     -0.73158091	     22.45551164	     -5.83565846	    -16.19547757	     -8.16243484	     -0.43938105	     -8.44032920	    -24.16978405	    -16.16251327	     -1.21543502	     85.41755580	     89.95437384	      0.00000000	      0.00000000	     11.07339762	     23.37051389	    -26.71362892	     81.56305562	     89.95437384	      0.00000000	      0.00000000
      0.34000000	     -6.60557109	     -1.58257939	      5.62804708	     -0.58642347	      0.83778510	      0.22779826	     47.13373006	     -1.99629459	     -5.19792474	    -88.00147599	     -1.53591550	     -2.43532967	    -18.15404463	     17.13298966	      9.13042507	     -3.05877555	      0.95465631	    -39.71343735	     -0.69313024	     21.39756256	     -5.84954480	    -15.97407168	     -7.04834684	      0.39485449	     -9.32798830	    -26.70815805	    -16.16845710	     -2.77689984	     87.15924560	     89.95437384	      0.00000000	      0.00000000	     12.00629400	     22.16181154	    -25.36794142	     85.43316942	     89.95437384	      0.00000000	      0.00000000
      0.35000000	     -6.87681355	     -2.49417868	      6.04863503	     -0.55426371	      0.84144400	      0.22745259	     49.32900266	     -1.73052348	     -6.17781748	    -84.43598656	     -1.47368597	     -2.17274784	    -18.22474640	     17.17858456	      5.97859839	     -1.75847816	      0.34658169	    -37.10312744	     -0.64757174	     19.30434571	     -5.90440840	    -16.32419374	     -6.53035443	      1.55209121	    -10.37291281	    -29.00516724	    -16.28642416	     -4.05166094	     88.71434234	     89.95437384	      0.00000000	      0.00000000	     12.80600350	     21.11162692	    -24.30561796	     89.56221358	     89.95437384	      0.00000000	      0.00000000
      0.36000000	     -7.49349709	     -3.31652792	      6.29332485	     -0.52148826	      0.84530425	      0.22762429	     51.45381540	     -1.37861876	     -6.99921525	    -80.22682553	     -1.40022225	     -2.72048510	    -17.93195003	     17.10102799	      3.36968579	     -0.52327184	      0.03466777	    -34.69094391	     -0.60547119	     16.26690100	     -5.58202286	    -15.97507220	     -5.54009113	      2.51457571	    -11.20978209	    -31.26933167	    -16.19364787	     -5.29848865	     90.08205742	     89.95437384	      0.00000000	      0.00000000	     13.48550913	     20.28557484	    -23.77694710	     93.80483246	     89.95437384	      0.00000000	      0.00000000
      0.37000000	     -7.69539963	     -4.02322912	      6.21886488	     -0.48815379	      0.85046981	      0.22789407	     52.56864566	     -0.76190394	     -7.50771810	    -75.23380527	     -1.31307761	     -4.31549266	    -17.64162932	     17.27658899	      0.40536541	      0.71316566	      0.46630884	    -32.30585178	     -0.56384348	     12.38418380	     -5.48608661	    -15.68911007	     -5.05603819	      3.42441198	    -11.76588594	    -33.26343803	    -16.21937942	     -6.24751249	     91.30894310	     89.95437384	      0.00000000	      0.00000000	     14.12497088	     19.71285633	    -23.69792795	     98.23504686	     89.95437384	      0.00000000	      0.00000000
      0.38000000	     -7.97525087	     -4.75828252	      6.05641277	     -0.45386866	      0.85595705	      0.22852432	     53.21195617	      0.04444070	     -8.00186138	    -69.59412211	     -1.21464657	     -6.16086736	    -17.22822400	     17.61314680	     -2.24970219	      2.05202242	      1.40157788	    -30.16735128	     -0.52651961	      7.53129128	     -5.43975562	    -15.05439911	     -4.36758740	      4.33116817	    -12.20602646	    -35.22995659	    -16.17139147	     -7.12220032	     92.33619582	     89.95437384	      0.00000000	      0.00000000	     14.53752622	     19.19191439	    -23.76978419	    102.63603307	     89.95437384	      0.00000000	      0.00000000
      0.39000000	     -8.25409362	     -5.35718428	      5.85071258	     -0.41927102	      0.86176991	      0.22898736	     53.37327981	      0.78500734	     -8.42130377	    -63.41753560	     -1.10684480	     -8.87486812	    -16.85238093	     18.27029232	     -4.63947723	      3.17746153	      2.52806836	    -28.24387580	     -0.49294863	      1.77281892	     -4.87881741	    -13.96042206	     -3.69367276	      5.13547152	    -12.54242662	    -37.01736924	    -16.05557792	     -7.90449932	     93.25097858	     89.95437384	      0.00000000	      0.00000000	     14.92273758	     18.86583427	    -24.17724037	    106.91415594	     89.95437384	      0.00000000	      0.00000000
      0.40000000	     -9.06214093	     -5.84512305	      5.82548627	     -0.38447616	      0.86673327	      0.22904987	     53.71069180	      1.24460297	     -8.71780891	    -57.00176781	     -0.99486853	    -11.78820577	    -15.45507406	     18.68737638	     -6.15105453	      3.95976772	      2.87946909	    -26.55563465	     -0.46348326	     -4.30353741	     -3.50653289	    -12.55233939	     -2.30966143	      5.78766725	    -12.96047451	    -38.88192649	    -15.80186733	     -8.76136821	     93.93923513	     89.95437384	      0.00000000	      0.00000000	     15.16678161	     18.57246666	    -24.85904623	    110.87453831	     89.95437384	      0.00000000	      0.00000000
      0.41000000	     -8.50684749	     -6.25392601	      5.36584030	     -0.34786602	      0.87331925	      0.22964403	     52.09779445	      2.21036175	     -9.01305829	    -50.24014200	     -0.87685589	    -15.56952563	    -15.81398572	     20.30979479	     -9.50339237	      4.97292740	      5.12342085	    -23.95020717	     -0.41800997	    -12.41345892	     -3.22414112	    -10.52824222	     -2.44657332	      6.51510411	    -12.76258939	    -40.54202930	    -15.78831514	     -9.24571457	     94.77559263	     89.95437384	      0.00000000	      0.00000000	     15.46167105	     18.40323574	    -25.69629105	    114.69778191	     89.95437384	      0.00000000	      0.00000000
      0.42000000	     -8.63733674	     -6.50091505	      5.10891213	     -0.31151176	      0.87839286	      0.23002887	     51.05911319	      2.75312616	     -9.32860495	    -43.67959560	     -0.76235276	    -18.60745141	    -14.50761852	     22.35981970	    -11.63131997	      5.67872060	      6.41854545	    -22.03085700	     -0.38451099	    -18.56293051	     -4.28252389	      5.20282291	     -1.73040838	      6.99167304	    -12.69049670	    -42.17966069	    -15.54076910	     -9.84745850	     95.40557636	     89.95437384	      0.00000000	      0.00000000	     15.60665396	     18.29652440	    -26.79946765	    118.22957533	     89.95437384	      0.00000000	      0.00000000
      0.43000000	     -8.83808476	     -6.46981913	      4.89326503	     -0.27516897	      0.88254990	      0.23016407	     49.98694160	      2.94715166	     -9.80447783	    -37.52849729	     -0.65499584	    -20.65462044	    -13.24027681	     22.73123997	    -13.79944498	      5.80898361	      6.19653612	    -19.72051604	     -0.34418794	    -23.92022932	     -3.26047080	      6.52341301	     -0.92539794	      7.16851704	    -12.56653137	    -43.68005533	    -15.30979240	    -10.32591120	     95.98981920	     89.95437384	      0.00000000	      0.00000000	     15.73636268	     18.30697585	    -28.11081629	    121.60472162	     89.95437384	      0.00000000	      0.00000000
      0.44000000	     -9.51950210	     -6.29466393	      4.85728638	     -0.23946530	      0.88507829	      0.23012744	     49.42512729	      2.84968528	    -10.39750996	    -32.05270004	     -0.55942515	    -20.95308140	    -12.44137948	     22.91166366	    -14.82315502	      5.82274575	      5.39474899	    -18.58984987	     -0.32445409	    -27.56880936	     -2.34504490	      7.39040426	      0.44218696	      7.12863191	    -12.43853277	    -45.08766101	    -14.88392025	    -10.94058489	     96.38249546	     89.95437384	      0.00000000	      0.00000000	     15.89678763	     18.35134303	    -29.82692382	    124.50620969	     89.95437384	      0.00000000	      0.00000000
      0.45000000	     -9.48940849	     -6.05699084	      4.52754906	     -0.20357706	      0.88736431	      0.23044032	     48.29417467	      2.79049324	    -11.76903255	    -27.64091917	     -0.48242505	    -21.26983096	    -12.26419135	     23.08026419	    -16.06672258	      5.72071020	      5.04188120	    -18.43466627	     -0.32174562	    -31.38142380	     -0.30391714	      8.45053328	      0.90587383	      7.13592984	    -11.84419924	    -46.21099840	    -14.66484264	    -11.30542014	     97.00658216	     89.95437384	      0.00000000	      0.00000000	     16.21502398	     18.52144553	    -31.61066920	    127.07710024	     89.95437384	      0.00000000	      0.00000000
      0.46000000	     -9.31221985	     -5.82752050	      4.04103288	     -0.16808691	      0.88864826	      0.23101091	     47.26857125	      2.79269079	    -13.52747916	    -24.44246474	     -0.42660149	    -21.78567966	    -12.32201220	     23.01881045	    -16.69600481	      5.52010239	      5.15926340	    -19.95653807	     -0.34830730	    -33.04453150	      3.51556627	      9.50167516	      1.13395346	      7.21441067	    -11.09716400	    -46.94489396	    -14.70443871	    -11.49379492	     97.59828248	     89.95437384	      0.00000000	      0.00000000	     16.35586658	     18.70974713	    -33.05832136	    129.07469016	     89.95437384	      0.00000000	      0.00000000
      0.47000000	     -9.53071332	     -5.25777718	      3.60974345	     -0.13341868	      0.88815715	      0.23107808	     46.95348784	      2.31342492	    -15.23913391	    -22.63592083	     -0.39507135	    -22.41528793	    -12.37942806	     22.34603549	    -16.32004238	      4.55525479	      3.93991075	    -22.73261928	     -0.39675905	    -32.19342736	      8.87840284	     11.14276886	      1.70902044	      6.89052733	    -10.34318722	    -47.34982376	    -15.00365214	    -11.39674051	     97.94787157	     89.95437384	      0.00000000	      0.00000000	     16.30017157	     18.90603139	    -34.42517620	    130.21367976	     89.95437384	      0.00000000	      0.00000000
      0.48000000	     -9.62936589	     -4.98561313	      2.97506608	     -0.09907821	      0.88665075	      0.23177283	     46.60541546	      2.25636569	    -16.87437499	    -21.89525434	     -0.38214428	    -22.42186153	    -11.41128379	     21.58613353	    -15.54080948	      4.06420588	      3.81282115	    -26.51647722	     -0.46279983	    -30.71919567	     11.81188307	     11.66733742	      2.11196596	      6.88546554	     -9.12494147	    -47.48209421	    -15.35185235	    -11.28535693	     98.16929740	     89.95437384	      0.00000000	      0.00000000	     16.19632921	     18.94290797	    -35.59385209	    130.37108535	     89.95437384	      0.00000000	      0.00000000
